{"title":"Justice.League.The.Flashpoint.Paradox.2013.DvDRip.XviD.Ac3.Feel-","uid":8698858,"size":1284259345,"categoryP":"video","categoryS":"movies","magnet":"?xt=urn:btih:25b199837cfa194236e1285057007217c93b9a11&amp;dn=Justice.League.The.Flashpoint.Paradox.2013.DvDRip.XviD.Ac3.Feel-&amp;tr=udp%3A%2F%2Ftracker.openbittorrent.com%3A80&amp;tr=udp%3A%2F%2Fopen.demonii.com%3A1337&amp;tr=udp%3A%2F%2Ftracker.coppersurfer.tk%3A6969&amp;tr=udp%3A%2F%2Fexodus.desync.com%3A6969","seeders":5,"leechers":0,"uploader":"SaM","files":6,"time":1374016484,"description":"Genre:Animation | Action | Adventure\nLanguage:English\nIMDb:http://www.imdb.com/title/tt2820466/\nSource:DVD Thanks\nSample:Never\nEncoder:Tony\n\nFormat : AVI\nFormat/Info : Audio Video Interleave\nFile size : 1.20 GiB\nDuration : 1h 29mn\nOverall bit rate : 1 914 Kbps\n\nVideo\nID : 0\nFormat : MPEG-4 Visual\nFormat profile : Advanced Simple@L5\nFormat settings, BVOP : 1\nFormat settings, QPel : No\nFormat settings, GMC : No warppoints\nFormat settings, Matrix : Default (H.263)\nCodec ID : XVID\nCodec ID/Hint : XviD\nDuration : 1h 29mn\nBit rate : 1 556 Kbps\nWidth : 640 pixels\nHeight : 352 pixels\nDisplay aspect ratio : 16:9\nFrame rate : 23.976 fps\nColor space : YUV\nChroma subsampling : 4:2:0\nBit depth : 8 bits\nScan type : Progressive\nCompression mode : Lossy\nBits/(Pixel*Frame) : 0.288\nStream size : 995 MiB (81%)\nWriting library : XviD 1.2.1 (UTC 2008-12-04)\n\nAudio\nID : 1\nFormat : AC-3\nFormat/Info : Audio Coding 3\nMode extension : CM (complete main)\nCodec ID : 2000\nDuration : 1h 21mn\nBit rate mode : Constant\nBit rate : 384 Kbps\nChannel(s) : 6 channels\nChannel positions : Front: L C R, Side: L R, LFE\nSampling rate : 48.0 KHz\nBit depth : 16 bits\nCompression mode : Lossy\nStream size : 223 MiB (18%)\nAlignment : Aligned on interleaves\nInterleave, duration : 46 ms (1.10 video frame)\nInterleave, preload duration : 512 ms\n &lt;a href=&quot;\nhttp://lookpic.com/O/i2/1317/IGQI1449.png&quot; rel=&quot;nofollow&quot; target=&quot;_NEW&quot;&gt;\nhttp://lookpic.com/O/i2/1317/IGQI1449.png&lt;/a&gt;\n &lt;a href=&quot;\nhttp://lookpic.com/O/i2/942/pZRRbKKS.png&quot; rel=&quot;nofollow&quot; target=&quot;_NEW&quot;&gt;\nhttp://lookpic.com/O/i2/942/pZRRbKKS.png&lt;/a&gt;\n &lt;a href=&quot;\nhttp://lookpic.com/O/i2/1630/dyWUF33K.png&quot; rel=&quot;nofollow&quot; target=&quot;_NEW&quot;&gt;\nhttp://lookpic.com/O/i2/1630/dyWUF33K.png&lt;/a&gt;\n\nGreets:\nCRYS,INSPiRAL,IMAGINE,LKRG,ADTRG,FXG,3Li,FLAWL3SS,CrEwSaDe,TA,iLLUSiON,EMBER,HOPE,GooN,BBnRG,NOGRP,ETRG,BHRG,iLLUMiNATi,MiSTERE.ViSiON,DTRG SAFCuk009,LU,TheFalcon007,MYSTiC,PrisM,Noir,WBZ,LAP,Rx,Kingdom,SAFCuk009+Fabreezy,HDLiTE,TWiZTED,ETRG.ELEKTRI4KA,MAGNAT,CM8\nAnd to all the other p2p grps past and present\n\n\n\n\nMake sure its a real Feel-Free release @\nThanks to all who promotes release Feel-Free !!!","torrent":{"xt":"urn:btih:25b199837cfa194236e1285057007217c93b9a11","amp;dn":"Justice.League.The.Flashpoint.Paradox.2013.DvDRip.XviD.Ac3.Feel-","amp;tr":["udp%3A%2F%2Ftracker.openbittorrent.com%3A80","udp%3A%2F%2Fopen.demonii.com%3A1337","udp%3A%2F%2Ftracker.coppersurfer.tk%3A6969","udp%3A%2F%2Fexodus.desync.com%3A6969"],"infoHash":"25b199837cfa194236e1285057007217c93b9a11","infoHashBuffer":{"type":"Buffer","data":[37,177,153,131,124,250,25,66,54,225,40,80,87,0,114,23,201,59,154,17]},"announce":[],"urlList":[]}}